# MagicaVoxel @ Ephtracy

# group
o 

# material
mtllib skippy.mtl
usemtl palette

# normals
vn -1 0 0
vn 1 0 0
vn 0 0 1
vn 0 0 -1
vn 0 -1 0
vn 0 1 0

# texcoords
vt 0.666016 0.5
vt 0.669922 0.5
vt 0.673828 0.5
vt 0.841797 0.5
vt 0.845703 0.5
vt 0.958984 0.5
vt 0.962891 0.5
vt 0.966797 0.5
vt 0.970703 0.5
vt 0.986328 0.5
vt 0.994141 0.5

# verts
v -1.1 0.7 0.3
v -1.1 0.7 0.1
v -1.1 0.7 -0.1
v -1.1 0.7 -0.3
v -1.1 0.9 0.3
v -1.1 0.9 0.1
v -1.1 0.9 -0.1
v -1.1 0.9 -0.3
v -1.1 1 0.3
v -1.1 1 0.1
v -1.1 1 -0.1
v -1.1 1 -0.3
v -0.8 0.7 0.1
v -0.8 0.7 -0.1
v -0.8 1 0.1
v -0.8 1 -0.1
v -0.2 0.4 0.6
v -0.2 0.4 -0.6
v -0.2 0.5 0.7
v -0.2 0.5 0.6
v -0.2 0.5 0.5
v -0.2 0.5 -0.5
v -0.2 0.5 -0.6
v -0.2 0.5 -0.7
v -0.2 0.6 0.6
v -0.2 0.6 0.5
v -0.2 0.6 0.4
v -0.2 0.6 0.3
v -0.2 0.6 -0.3
v -0.2 0.6 -0.4
v -0.2 0.6 -0.5
v -0.2 0.6 -0.6
v -0.2 0.7 0.6
v -0.2 0.7 0.5
v -0.2 0.7 0.4
v -0.2 0.7 0.3
v -0.2 0.7 0.1
v -0.2 0.7 -0.1
v -0.2 0.7 -0.3
v -0.2 0.7 -0.4
v -0.2 0.7 -0.5
v -0.2 0.7 -0.6
v -0.2 0.9 0.1
v -0.2 0.9 -0.1
v -0.2 1 0.5
v -0.2 1 0.4
v -0.2 1 0.3
v -0.2 1 0.1
v -0.2 1 -0.1
v -0.2 1 -0.3
v -0.2 1 -0.4
v -0.2 1 -0.5
v -0.2 1.1 0.6
v -0.2 1.1 0.5
v -0.2 1.1 0.4
v -0.2 1.1 0.3
v -0.2 1.1 -0.3
v -0.2 1.1 -0.4
v -0.2 1.1 -0.5
v -0.2 1.1 -0.6
v -0.2 1.2 0.7
v -0.2 1.2 0.6
v -0.2 1.2 0.5
v -0.2 1.2 -0.5
v -0.2 1.2 -0.6
v -0.2 1.2 -0.7
v -0.2 1.3 0.6
v -0.2 1.3 -0.6
v -0.1 0.4 0.7
v -0.1 0.4 0.6
v -0.1 0.4 -0.6
v -0.1 0.4 -0.7
v -0.1 0.5 0.7
v -0.1 0.5 0.6
v -0.1 0.5 -0.6
v -0.1 0.5 -0.7
v -0.1 1.2 0.7
v -0.1 1.2 0.6
v -0.1 1.2 -0.6
v -0.1 1.2 -0.7
v -0.1 1.3 0.7
v -0.1 1.3 0.6
v -0.1 1.3 -0.6
v -0.1 1.3 -0.7
v 0 1.3 0.5
v 0 1.3 -0.5
v 0 1.4 0.4
v 0 1.4 0.3
v 0 1.4 0.2
v 0 1.4 -0.2
v 0 1.4 -0.3
v 0 1.4 -0.4
v 0 1.5 0.4
v 0 1.5 0.3
v 0 1.5 0.2
v 0 1.5 0.1
v 0 1.5 -0.1
v 0 1.5 -0.2
v 0 1.5 -0.3
v 0 1.5 -0.4
v 0 1.7 0.2
v 0 1.7 0.1
v 0 1.7 -0.1
v 0 1.7 -0.2
v 0 1.8 0.4
v 0 1.8 0.3
v 0 1.8 0.2
v 0 1.8 -0.2
v 0 1.8 -0.3
v 0 1.8 -0.4
v 0 1.9 0.5
v 0 1.9 0.4
v 0 1.9 0.3
v 0 1.9 -0.3
v 0 1.9 -0.4
v 0 1.9 -0.5
v 0 2 0.4
v 0 2 -0.4
v 0.1 1.5 0.3
v 0.1 1.5 0.2
v 0.1 1.5 0.1
v 0.1 1.5 -0.1
v 0.1 1.5 -0.2
v 0.1 1.5 -0.3
v 0.1 1.7 0.2
v 0.1 1.7 0.1
v 0.1 1.7 -0.1
v 0.1 1.7 -0.2
v 0.1 1.8 0.3
v 0.1 1.8 0.2
v 0.1 1.8 -0.2
v 0.1 1.8 -0.3
v 0.1 1.9 0.5
v 0.1 1.9 0.4
v 0.1 1.9 -0.4
v 0.1 1.9 -0.5
v 0.1 2 0.5
v 0.1 2 0.4
v 0.1 2 -0.4
v 0.1 2 -0.5
v 0.2 0.2 0.3
v 0.2 0.2 -0.3
v 0.2 0.4 0.3
v 0.2 0.4 -0.3
v 0.2 2 0.3
v 0.2 2 0.2
v 0.2 2 0.1
v 0.2 2 -0.1
v 0.2 2 -0.2
v 0.2 2 -0.3
v 0.2 2.1 0.3
v 0.2 2.1 0.2
v 0.2 2.1 0.1
v 0.2 2.1 -0.1
v 0.2 2.1 -0.2
v 0.2 2.1 -0.3
v 0.2 2.2 0.2
v 0.2 2.2 -0.2
v 0.3 0.1 0.3
v 0.3 0.1 -0.3
v 0.3 0.2 0.3
v 0.3 0.2 -0.3
v 0.3 2.1 0.3
v 0.3 2.1 0.2
v 0.3 2.1 -0.2
v 0.3 2.1 -0.3
v 0.3 2.2 0.3
v 0.3 2.2 0.2
v 0.3 2.2 -0.2
v 0.3 2.2 -0.3
v -0.6 0.7 0.3
v -0.6 0.7 0.1
v -0.6 0.7 -0.1
v -0.6 0.7 -0.3
v -0.6 0.9 0.3
v -0.6 0.9 0.1
v -0.6 0.9 -0.1
v -0.6 0.9 -0.3
v -0.6 1 0.3
v -0.6 1 0.1
v -0.6 1 -0.1
v -0.6 1 -0.3
v 0.7 0.1 0.3
v 0.7 0.1 -0.3
v 0.7 0.2 0.3
v 0.7 0.2 -0.3
v 0.7 2.1 0.3
v 0.7 2.1 0.2
v 0.7 2.1 -0.2
v 0.7 2.1 -0.3
v 0.7 2.2 0.3
v 0.7 2.2 0.2
v 0.7 2.2 -0.2
v 0.7 2.2 -0.3
v 0.8 0.2 0.3
v 0.8 0.2 -0.3
v 0.8 0.4 0.3
v 0.8 0.4 -0.3
v 0.8 2 0.3
v 0.8 2 0.2
v 0.8 2 0.1
v 0.8 2 -0.1
v 0.8 2 -0.2
v 0.8 2 -0.3
v 0.8 2.1 0.3
v 0.8 2.1 0.2
v 0.8 2.1 0.1
v 0.8 2.1 -0.1
v 0.8 2.1 -0.2
v 0.8 2.1 -0.3
v 0.8 2.2 0.2
v 0.8 2.2 -0.2
v 0.9 1.9 0.5
v 0.9 1.9 0.4
v 0.9 1.9 -0.4
v 0.9 1.9 -0.5
v 0.9 2 0.5
v 0.9 2 0.4
v 0.9 2 -0.4
v 0.9 2 -0.5
v 1 1.3 0.5
v 1 1.3 -0.5
v 1 1.4 0.4
v 1 1.4 -0.4
v 1 1.5 0.3
v 1 1.5 -0.3
v 1 1.7 0.2
v 1 1.7 -0.2
v 1 1.8 0.4
v 1 1.8 0.3
v 1 1.8 0.2
v 1 1.8 -0.2
v 1 1.8 -0.3
v 1 1.8 -0.4
v 1 1.9 0.5
v 1 1.9 0.4
v 1 1.9 0.3
v 1 1.9 0.2
v 1 1.9 -0.2
v 1 1.9 -0.3
v 1 1.9 -0.4
v 1 1.9 -0.5
v 1 2 0.4
v 1 2 -0.4
v 1.1 0.4 0.7
v 1.1 0.4 0.6
v 1.1 0.4 -0.6
v 1.1 0.4 -0.7
v 1.1 0.5 0.7
v 1.1 0.5 0.6
v 1.1 0.5 -0.6
v 1.1 0.5 -0.7
v 1.1 1.2 0.7
v 1.1 1.2 0.6
v 1.1 1.2 -0.6
v 1.1 1.2 -0.7
v 1.1 1.3 0.7
v 1.1 1.3 0.6
v 1.1 1.3 -0.6
v 1.1 1.3 -0.7
v 1.2 0.4 0.6
v 1.2 0.4 -0.6
v 1.2 0.5 0.7
v 1.2 0.5 0.6
v 1.2 0.5 0.5
v 1.2 0.5 -0.5
v 1.2 0.5 -0.6
v 1.2 0.5 -0.7
v 1.2 0.6 0.6
v 1.2 0.6 0.5
v 1.2 0.6 0.4
v 1.2 0.6 -0.4
v 1.2 0.6 -0.5
v 1.2 0.6 -0.6
v 1.2 0.7 0.5
v 1.2 0.7 0.4
v 1.2 0.7 -0.4
v 1.2 0.7 -0.5
v 1.2 0.8 0.5
v 1.2 0.8 0.4
v 1.2 0.8 -0.4
v 1.2 0.8 -0.5
v 1.2 0.9 0.4
v 1.2 0.9 0.3
v 1.2 0.9 -0.3
v 1.2 0.9 -0.4
v 1.2 1 0.5
v 1.2 1 0.4
v 1.2 1 0.3
v 1.2 1 -0.3
v 1.2 1 -0.4
v 1.2 1 -0.5
v 1.2 1.1 0.6
v 1.2 1.1 0.5
v 1.2 1.1 0.4
v 1.2 1.1 -0.4
v 1.2 1.1 -0.5
v 1.2 1.1 -0.6
v 1.2 1.2 0.7
v 1.2 1.2 0.6
v 1.2 1.2 0.5
v 1.2 1.2 -0.5
v 1.2 1.2 -0.6
v 1.2 1.2 -0.7
v 1.2 1.3 0.6
v 1.2 1.3 -0.6
v -0.2 0.5 0.7
v -0.2 1.2 0.7
v -0.1 0.4 0.7
v -0.1 0.5 0.7
v -0.1 0.6 0.7
v -0.1 0.7 0.7
v -0.1 1.1 0.7
v -0.1 1.2 0.7
v -0.1 1.3 0.7
v 0 0.5 0.7
v 0 0.6 0.7
v 0 0.7 0.7
v 0 0.8 0.7
v 0 1 0.7
v 0 1.1 0.7
v 0 1.2 0.7
v 0.1 0.7 0.7
v 0.1 0.8 0.7
v 0.1 1 0.7
v 0.1 1.1 0.7
v 0.7 0.7 0.7
v 0.7 0.8 0.7
v 0.7 1 0.7
v 0.7 1.1 0.7
v 0.8 0.8 0.7
v 0.8 1 0.7
v 0.8 1.1 0.7
v 0.8 1.2 0.7
v 0.9 0.6 0.7
v 0.9 0.7 0.7
v 0.9 1 0.7
v 0.9 1.1 0.7
v 1 0.5 0.7
v 1 0.6 0.7
v 1 0.7 0.7
v 1 1 0.7
v 1 1.1 0.7
v 1 1.2 0.7
v 1.1 0.4 0.7
v 1.1 0.5 0.7
v 1.1 0.6 0.7
v 1.1 1.1 0.7
v 1.1 1.2 0.7
v 1.1 1.3 0.7
v 1.2 0.5 0.7
v 1.2 1.2 0.7
v -0.2 0.4 0.6
v -0.2 0.5 0.6
v -0.2 1.2 0.6
v -0.2 1.3 0.6
v -0.1 0.4 0.6
v -0.1 0.5 0.6
v -0.1 1.2 0.6
v -0.1 1.3 0.6
v 1.1 0.4 0.6
v 1.1 0.5 0.6
v 1.1 1.2 0.6
v 1.1 1.3 0.6
v 1.2 0.4 0.6
v 1.2 0.5 0.6
v 1.2 1.2 0.6
v 1.2 1.3 0.6
v 0 1.3 0.5
v 0 1.9 0.5
v 0.1 1.4 0.5
v 0.1 1.8 0.5
v 0.1 1.9 0.5
v 0.1 2 0.5
v 0.2 1.5 0.5
v 0.2 1.8 0.5
v 0.2 1.9 0.5
v 0.3 1.4 0.5
v 0.3 1.5 0.5
v 0.3 1.8 0.5
v 0.3 1.9 0.5
v 0.7 1.4 0.5
v 0.7 1.5 0.5
v 0.7 1.8 0.5
v 0.7 1.9 0.5
v 0.8 1.5 0.5
v 0.8 1.8 0.5
v 0.8 1.9 0.5
v 0.9 1.4 0.5
v 0.9 1.8 0.5
v 0.9 1.9 0.5
v 0.9 2 0.5
v 1 1.3 0.5
v 1 1.9 0.5
v 0 1.9 0.4
v 0 2 0.4
v 0.1 1.9 0.4
v 0.1 2 0.4
v 0.9 1.9 0.4
v 0.9 2 0.4
v 1 1.9 0.4
v 1 2 0.4
v -1.1 0.7 0.3
v -1.1 0.9 0.3
v -1.1 1 0.3
v -0.8 0.9 0.3
v -0.8 1 0.3
v -0.6 0.7 0.3
v -0.6 0.9 0.3
v -0.6 1 0.3
v 0.2 0.2 0.3
v 0.2 0.4 0.3
v 0.2 2 0.3
v 0.2 2.1 0.3
v 0.3 0.1 0.3
v 0.3 0.2 0.3
v 0.3 0.3 0.3
v 0.3 0.4 0.3
v 0.3 2 0.3
v 0.3 2.1 0.3
v 0.3 2.2 0.3
v 0.4 0.2 0.3
v 0.4 0.3 0.3
v 0.4 0.4 0.3
v 0.4 2 0.3
v 0.4 2.1 0.3
v 0.6 0.2 0.3
v 0.6 0.3 0.3
v 0.6 0.4 0.3
v 0.6 2 0.3
v 0.6 2.1 0.3
v 0.7 0.1 0.3
v 0.7 0.2 0.3
v 0.7 0.3 0.3
v 0.7 0.4 0.3
v 0.7 2 0.3
v 0.7 2.1 0.3
v 0.7 2.2 0.3
v 0.8 0.2 0.3
v 0.8 0.4 0.3
v 0.8 2 0.3
v 0.8 2.1 0.3
v 0 1.7 0.2
v 0 1.8 0.2
v 0.1 1.7 0.2
v 0.1 1.8 0.2
v 0.2 2.1 0.2
v 0.2 2.2 0.2
v 0.3 2.1 0.2
v 0.3 2.2 0.2
v 0.7 2.1 0.2
v 0.7 2.2 0.2
v 0.8 2.1 0.2
v 0.8 2.2 0.2
v -0.6 0.7 0.1
v -0.6 0.9 0.1
v -0.6 1 0.1
v -0.2 0.7 0.1
v -0.2 0.9 0.1
v -0.2 1 0.1
v 0 1.5 0.1
v 0 1.7 0.1
v 0.1 1.5 0.1
v 0.1 1.7 0.1
v -1.1 0.7 -0.1
v -1.1 0.9 -0.1
v -1.1 1 -0.1
v -1 0.9 -0.1
v -1 1 -0.1
v -0.8 0.7 -0.1
v -0.8 1 -0.1
v 0 1.5 -0.3
v 0 1.8 -0.3
v 0.1 1.5 -0.3
v 0.1 1.8 -0.3
v 0 1.5 0.3
v 0 1.8 0.3
v 0.1 1.5 0.3
v 0.1 1.8 0.3
v -1.1 0.7 0.1
v -1.1 0.9 0.1
v -1.1 1 0.1
v -1 0.9 0.1
v -1 1 0.1
v -0.8 0.7 0.1
v -0.8 1 0.1
v -0.6 0.7 -0.1
v -0.6 0.9 -0.1
v -0.6 1 -0.1
v -0.2 0.7 -0.1
v -0.2 0.9 -0.1
v -0.2 1 -0.1
v 0 1.5 -0.1
v 0 1.7 -0.1
v 0.1 1.5 -0.1
v 0.1 1.7 -0.1
v 0 1.7 -0.2
v 0 1.8 -0.2
v 0.1 1.7 -0.2
v 0.1 1.8 -0.2
v 0.2 2.1 -0.2
v 0.2 2.2 -0.2
v 0.3 2.1 -0.2
v 0.3 2.2 -0.2
v 0.7 2.1 -0.2
v 0.7 2.2 -0.2
v 0.8 2.1 -0.2
v 0.8 2.2 -0.2
v -1.1 0.7 -0.3
v -1.1 0.9 -0.3
v -1.1 1 -0.3
v -0.8 0.9 -0.3
v -0.8 1 -0.3
v -0.6 0.7 -0.3
v -0.6 0.9 -0.3
v -0.6 1 -0.3
v 0.2 0.2 -0.3
v 0.2 0.4 -0.3
v 0.2 2 -0.3
v 0.2 2.1 -0.3
v 0.3 0.1 -0.3
v 0.3 0.2 -0.3
v 0.3 0.3 -0.3
v 0.3 0.4 -0.3
v 0.3 2 -0.3
v 0.3 2.1 -0.3
v 0.3 2.2 -0.3
v 0.4 0.2 -0.3
v 0.4 0.3 -0.3
v 0.4 0.4 -0.3
v 0.4 2 -0.3
v 0.4 2.1 -0.3
v 0.6 0.2 -0.3
v 0.6 0.3 -0.3
v 0.6 0.4 -0.3
v 0.6 2 -0.3
v 0.6 2.1 -0.3
v 0.7 0.1 -0.3
v 0.7 0.2 -0.3
v 0.7 0.3 -0.3
v 0.7 0.4 -0.3
v 0.7 2 -0.3
v 0.7 2.1 -0.3
v 0.7 2.2 -0.3
v 0.8 0.2 -0.3
v 0.8 0.4 -0.3
v 0.8 2 -0.3
v 0.8 2.1 -0.3
v 0 1.9 -0.4
v 0 2 -0.4
v 0.1 1.9 -0.4
v 0.1 2 -0.4
v 0.9 1.9 -0.4
v 0.9 2 -0.4
v 1 1.9 -0.4
v 1 2 -0.4
v 0 1.3 -0.5
v 0 1.9 -0.5
v 0.1 1.4 -0.5
v 0.1 1.8 -0.5
v 0.1 1.9 -0.5
v 0.1 2 -0.5
v 0.2 1.5 -0.5
v 0.2 1.8 -0.5
v 0.2 1.9 -0.5
v 0.3 1.4 -0.5
v 0.3 1.5 -0.5
v 0.3 1.8 -0.5
v 0.3 1.9 -0.5
v 0.7 1.4 -0.5
v 0.7 1.5 -0.5
v 0.7 1.8 -0.5
v 0.7 1.9 -0.5
v 0.8 1.5 -0.5
v 0.8 1.8 -0.5
v 0.8 1.9 -0.5
v 0.9 1.4 -0.5
v 0.9 1.8 -0.5
v 0.9 1.9 -0.5
v 0.9 2 -0.5
v 1 1.3 -0.5
v 1 1.9 -0.5
v -0.2 0.4 -0.6
v -0.2 0.5 -0.6
v -0.2 1.2 -0.6
v -0.2 1.3 -0.6
v -0.1 0.4 -0.6
v -0.1 0.5 -0.6
v -0.1 1.2 -0.6
v -0.1 1.3 -0.6
v 1.1 0.4 -0.6
v 1.1 0.5 -0.6
v 1.1 1.2 -0.6
v 1.1 1.3 -0.6
v 1.2 0.4 -0.6
v 1.2 0.5 -0.6
v 1.2 1.2 -0.6
v 1.2 1.3 -0.6
v -0.2 0.5 -0.7
v -0.2 1.2 -0.7
v -0.1 0.4 -0.7
v -0.1 0.5 -0.7
v -0.1 0.6 -0.7
v -0.1 0.7 -0.7
v -0.1 1.1 -0.7
v -0.1 1.2 -0.7
v -0.1 1.3 -0.7
v 0 0.5 -0.7
v 0 0.6 -0.7
v 0 0.7 -0.7
v 0 0.8 -0.7
v 0 1 -0.7
v 0 1.1 -0.7
v 0 1.2 -0.7
v 0.1 0.7 -0.7
v 0.1 0.8 -0.7
v 0.1 1 -0.7
v 0.1 1.1 -0.7
v 0.7 0.7 -0.7
v 0.7 0.8 -0.7
v 0.7 1 -0.7
v 0.7 1.1 -0.7
v 0.8 0.8 -0.7
v 0.8 1 -0.7
v 0.8 1.1 -0.7
v 0.8 1.2 -0.7
v 0.9 0.6 -0.7
v 0.9 0.7 -0.7
v 0.9 1 -0.7
v 0.9 1.1 -0.7
v 1 0.5 -0.7
v 1 0.6 -0.7
v 1 0.7 -0.7
v 1 1 -0.7
v 1 1.1 -0.7
v 1 1.2 -0.7
v 1.1 0.4 -0.7
v 1.1 0.5 -0.7
v 1.1 0.6 -0.7
v 1.1 1.1 -0.7
v 1.1 1.2 -0.7
v 1.1 1.3 -0.7
v 1.2 0.5 -0.7
v 1.2 1.2 -0.7
v 0.3 0.1 0.3
v 0.7 0.1 0.3
v 0.3 0.1 -0.3
v 0.7 0.1 -0.3
v 0.2 0.2 0.3
v 0.3 0.2 0.3
v 0.7 0.2 0.3
v 0.8 0.2 0.3
v 0.2 0.2 -0.3
v 0.3 0.2 -0.3
v 0.7 0.2 -0.3
v 0.8 0.2 -0.3
v -0.1 0.4 0.7
v 1.1 0.4 0.7
v -0.2 0.4 0.6
v -0.1 0.4 0.6
v 1.1 0.4 0.6
v 1.2 0.4 0.6
v 0.2 0.4 0.3
v 0.3 0.4 0.3
v 0.4 0.4 0.3
v 0.6 0.4 0.3
v 0.7 0.4 0.3
v 0.8 0.4 0.3
v 0.2 0.4 -0.3
v 0.3 0.4 -0.3
v 0.4 0.4 -0.3
v 0.6 0.4 -0.3
v 0.7 0.4 -0.3
v 0.8 0.4 -0.3
v -0.2 0.4 -0.6
v -0.1 0.4 -0.6
v 1.1 0.4 -0.6
v 1.2 0.4 -0.6
v -0.1 0.4 -0.7
v 1.1 0.4 -0.7
v -0.2 0.5 0.7
v -0.1 0.5 0.7
v 1.1 0.5 0.7
v 1.2 0.5 0.7
v -0.2 0.5 0.6
v -0.1 0.5 0.6
v 1.1 0.5 0.6
v 1.2 0.5 0.6
v -0.2 0.5 -0.6
v -0.1 0.5 -0.6
v 1.1 0.5 -0.6
v 1.2 0.5 -0.6
v -0.2 0.5 -0.7
v -0.1 0.5 -0.7
v 1.1 0.5 -0.7
v 1.2 0.5 -0.7
v -1.1 0.7 0.3
v -0.6 0.7 0.3
v -1.1 0.7 0.1
v -0.8 0.7 0.1
v -0.6 0.7 0.1
v -0.2 0.7 0.1
v -1.1 0.7 -0.1
v -0.8 0.7 -0.1
v -0.6 0.7 -0.1
v -0.2 0.7 -0.1
v -1.1 0.7 -0.3
v -0.6 0.7 -0.3
v 0 1.7 0.2
v 0.1 1.7 0.2
v 0 1.7 0.1
v 0.1 1.7 0.1
v 0 1.7 -0.1
v 0.1 1.7 -0.1
v 0 1.7 -0.2
v 0.1 1.7 -0.2
v 0 1.8 0.3
v 0.1 1.8 0.3
v 0 1.8 0.2
v 0.1 1.8 0.2
v 0 1.8 -0.2
v 0.1 1.8 -0.2
v 0 1.8 -0.3
v 0.1 1.8 -0.3
v -1.1 1 0.3
v -0.8 1 0.3
v -0.6 1 0.3
v -1 1 0.2
v -0.8 1 0.2
v -0.7 1 0.2
v -1.1 1 0.1
v -1 1 0.1
v -0.8 1 0.1
v -0.7 1 0.1
v -0.6 1 0.1
v -0.2 1 0.1
v -1.1 1 -0.1
v -1 1 -0.1
v -0.8 1 -0.1
v -0.7 1 -0.1
v -0.6 1 -0.1
v -0.2 1 -0.1
v -1 1 -0.2
v -0.8 1 -0.2
v -0.7 1 -0.2
v -1.1 1 -0.3
v -0.8 1 -0.3
v -0.6 1 -0.3
v -0.2 1.2 0.7
v -0.1 1.2 0.7
v 1.1 1.2 0.7
v 1.2 1.2 0.7
v -0.2 1.2 0.6
v -0.1 1.2 0.6
v 1.1 1.2 0.6
v 1.2 1.2 0.6
v -0.2 1.2 -0.6
v -0.1 1.2 -0.6
v 1.1 1.2 -0.6
v 1.2 1.2 -0.6
v -0.2 1.2 -0.7
v -0.1 1.2 -0.7
v 1.1 1.2 -0.7
v 1.2 1.2 -0.7
v -0.1 1.3 0.7
v 1.1 1.3 0.7
v -0.2 1.3 0.6
v -0.1 1.3 0.6
v 0 1.3 0.6
v 1 1.3 0.6
v 1.1 1.3 0.6
v 1.2 1.3 0.6
v -0.1 1.3 0.5
v 0 1.3 0.5
v 1 1.3 0.5
v 1.1 1.3 0.5
v -0.1 1.3 -0.5
v 0 1.3 -0.5
v 1 1.3 -0.5
v 1.1 1.3 -0.5
v -0.2 1.3 -0.6
v -0.1 1.3 -0.6
v 0 1.3 -0.6
v 1 1.3 -0.6
v 1.1 1.3 -0.6
v 1.2 1.3 -0.6
v -0.1 1.3 -0.7
v 1.1 1.3 -0.7
v 0 1.5 0.3
v 0.1 1.5 0.3
v 0 1.5 0.2
v 0.1 1.5 0.2
v 0 1.5 0.1
v 0.1 1.5 0.1
v 0 1.5 -0.1
v 0.1 1.5 -0.1
v 0 1.5 -0.2
v 0.1 1.5 -0.2
v 0 1.5 -0.3
v 0.1 1.5 -0.3
v 0 1.9 0.5
v 0.1 1.9 0.5
v 0.9 1.9 0.5
v 1 1.9 0.5
v 0 1.9 0.4
v 0.1 1.9 0.4
v 0.9 1.9 0.4
v 1 1.9 0.4
v 0 1.9 -0.4
v 0.1 1.9 -0.4
v 0.9 1.9 -0.4
v 1 1.9 -0.4
v 0 1.9 -0.5
v 0.1 1.9 -0.5
v 0.9 1.9 -0.5
v 1 1.9 -0.5
v 0.1 2 0.5
v 0.9 2 0.5
v 0 2 0.4
v 0.1 2 0.4
v 0.2 2 0.4
v 0.8 2 0.4
v 0.9 2 0.4
v 1 2 0.4
v 0.1 2 0.3
v 0.2 2 0.3
v 0.3 2 0.3
v 0.4 2 0.3
v 0.6 2 0.3
v 0.7 2 0.3
v 0.8 2 0.3
v 0.9 2 0.3
v 0.2 2 0.2
v 0.8 2 0.2
v 0.2 2 0.1
v 0.8 2 0.1
v 0.2 2 -0.1
v 0.8 2 -0.1
v 0.2 2 -0.2
v 0.8 2 -0.2
v 0.1 2 -0.3
v 0.2 2 -0.3
v 0.3 2 -0.3
v 0.4 2 -0.3
v 0.6 2 -0.3
v 0.7 2 -0.3
v 0.8 2 -0.3
v 0.9 2 -0.3
v 0 2 -0.4
v 0.1 2 -0.4
v 0.2 2 -0.4
v 0.8 2 -0.4
v 0.9 2 -0.4
v 1 2 -0.4
v 0.1 2 -0.5
v 0.9 2 -0.5
v 0.2 2.1 0.3
v 0.3 2.1 0.3
v 0.7 2.1 0.3
v 0.8 2.1 0.3
v 0.2 2.1 0.2
v 0.3 2.1 0.2
v 0.7 2.1 0.2
v 0.8 2.1 0.2
v 0.2 2.1 -0.2
v 0.3 2.1 -0.2
v 0.7 2.1 -0.2
v 0.8 2.1 -0.2
v 0.2 2.1 -0.3
v 0.3 2.1 -0.3
v 0.7 2.1 -0.3
v 0.8 2.1 -0.3
v 0.3 2.2 0.3
v 0.7 2.2 0.3
v 0.2 2.2 0.2
v 0.3 2.2 0.2
v 0.4 2.2 0.2
v 0.6 2.2 0.2
v 0.7 2.2 0.2
v 0.8 2.2 0.2
v 0.3 2.2 0.1
v 0.4 2.2 0.1
v 0.6 2.2 0.1
v 0.7 2.2 0.1
v 0.3 2.2 -0.1
v 0.4 2.2 -0.1
v 0.6 2.2 -0.1
v 0.7 2.2 -0.1
v 0.2 2.2 -0.2
v 0.3 2.2 -0.2
v 0.4 2.2 -0.2
v 0.6 2.2 -0.2
v 0.7 2.2 -0.2
v 0.8 2.2 -0.2
v 0.3 2.2 -0.3
v 0.7 2.2 -0.3

# faces
f 5/3/1 2/3/1 1/3/1
f 6/3/1 2/3/1 5/3/1
f 7/3/1 4/3/1 3/3/1
f 8/3/1 4/3/1 7/3/1
f 9/1/1 6/1/1 5/1/1
f 10/1/1 6/1/1 9/1/1
f 11/1/1 8/1/1 7/1/1
f 12/1/1 8/1/1 11/1/1
f 15/3/1 14/3/1 13/3/1
f 16/3/1 14/3/1 15/3/1
f 20/11/1 18/11/1 17/11/1
f 21/11/1 18/11/1 20/11/1
f 22/11/1 18/11/1 21/11/1
f 23/11/1 18/11/1 22/11/1
f 25/11/1 20/11/1 19/11/1
f 25/11/1 21/11/1 20/11/1
f 26/8/1 22/8/1 21/8/1
f 26/11/1 21/11/1 25/11/1
f 27/8/1 22/8/1 26/8/1
f 28/8/1 22/8/1 27/8/1
f 29/8/1 22/8/1 28/8/1
f 30/8/1 22/8/1 29/8/1
f 31/11/1 24/11/1 23/11/1
f 31/8/1 22/8/1 30/8/1
f 31/11/1 23/11/1 22/11/1
f 32/11/1 24/11/1 31/11/1
f 33/11/1 25/11/1 19/11/1
f 33/8/1 26/8/1 25/8/1
f 33/8/1 27/8/1 26/8/1
f 34/8/1 27/8/1 33/8/1
f 35/7/1 28/7/1 27/7/1
f 35/8/1 27/8/1 34/8/1
f 36/11/1 29/11/1 28/11/1
f 36/7/1 28/7/1 35/7/1
f 37/11/1 29/11/1 36/11/1
f 38/11/1 29/11/1 37/11/1
f 39/6/1 30/6/1 29/6/1
f 39/11/1 29/11/1 38/11/1
f 40/8/1 32/8/1 31/8/1
f 40/6/1 30/6/1 39/6/1
f 40/8/1 31/8/1 30/8/1
f 41/8/1 32/8/1 40/8/1
f 42/11/1 24/11/1 32/11/1
f 42/8/1 32/8/1 41/8/1
f 43/11/1 37/11/1 36/11/1
f 43/11/1 36/11/1 35/11/1
f 44/11/1 39/11/1 38/11/1
f 44/11/1 40/11/1 39/11/1
f 45/6/1 35/6/1 34/6/1
f 45/7/1 34/7/1 33/7/1
f 46/11/1 43/11/1 35/11/1
f 46/6/1 35/6/1 45/6/1
f 47/11/1 43/11/1 46/11/1
f 48/11/1 43/11/1 47/11/1
f 49/11/1 40/11/1 44/11/1
f 50/11/1 40/11/1 49/11/1
f 51/6/1 41/6/1 40/6/1
f 51/11/1 40/11/1 50/11/1
f 52/7/1 42/7/1 41/7/1
f 52/6/1 41/6/1 51/6/1
f 53/7/1 45/7/1 33/7/1
f 53/11/1 33/11/1 19/11/1
f 53/7/1 46/7/1 45/7/1
f 54/7/1 46/7/1 53/7/1
f 55/6/1 47/6/1 46/6/1
f 55/7/1 46/7/1 54/7/1
f 56/11/1 48/11/1 47/11/1
f 56/6/1 47/6/1 55/6/1
f 56/11/1 50/11/1 49/11/1
f 56/11/1 49/11/1 48/11/1
f 57/6/1 51/6/1 50/6/1
f 57/11/1 50/11/1 56/11/1
f 58/7/1 52/7/1 51/7/1
f 58/6/1 51/6/1 57/6/1
f 59/7/1 42/7/1 52/7/1
f 59/7/1 52/7/1 58/7/1
f 60/11/1 24/11/1 42/11/1
f 60/7/1 42/7/1 59/7/1
f 61/11/1 53/11/1 19/11/1
f 61/11/1 54/11/1 53/11/1
f 62/11/1 54/11/1 61/11/1
f 63/7/1 59/7/1 58/7/1
f 63/11/1 54/11/1 62/11/1
f 63/7/1 55/7/1 54/7/1
f 63/7/1 58/7/1 57/7/1
f 63/7/1 56/7/1 55/7/1
f 63/7/1 57/7/1 56/7/1
f 64/11/1 60/11/1 59/11/1
f 64/7/1 59/7/1 63/7/1
f 65/11/1 24/11/1 60/11/1
f 65/11/1 60/11/1 64/11/1
f 66/11/1 24/11/1 65/11/1
f 67/11/1 64/11/1 63/11/1
f 67/11/1 65/11/1 64/11/1
f 67/11/1 63/11/1 62/11/1
f 68/11/1 65/11/1 67/11/1
f 73/11/1 70/11/1 69/11/1
f 74/11/1 70/11/1 73/11/1
f 75/11/1 72/11/1 71/11/1
f 76/11/1 72/11/1 75/11/1
f 81/11/1 78/11/1 77/11/1
f 82/11/1 78/11/1 81/11/1
f 83/11/1 80/11/1 79/11/1
f 84/11/1 80/11/1 83/11/1
f 87/11/1 86/11/1 85/11/1
f 88/11/1 86/11/1 87/11/1
f 89/11/1 86/11/1 88/11/1
f 90/11/1 86/11/1 89/11/1
f 91/11/1 86/11/1 90/11/1
f 92/11/1 86/11/1 91/11/1
f 93/11/1 87/11/1 85/11/1
f 93/8/1 88/8/1 87/8/1
f 94/7/1 89/7/1 88/7/1
f 94/8/1 88/8/1 93/8/1
f 95/6/1 90/6/1 89/6/1
f 95/7/1 89/7/1 94/7/1
f 96/6/1 90/6/1 95/6/1
f 97/6/1 90/6/1 96/6/1
f 98/7/1 91/7/1 90/7/1
f 98/6/1 90/6/1 97/6/1
f 99/8/1 92/8/1 91/8/1
f 99/7/1 91/7/1 98/7/1
f 100/11/1 86/11/1 92/11/1
f 100/8/1 92/8/1 99/8/1
f 102/6/1 97/6/1 96/6/1
f 103/6/1 97/6/1 102/6/1
f 105/11/1 93/11/1 85/11/1
f 105/7/1 94/7/1 93/7/1
f 106/7/1 94/7/1 105/7/1
f 107/6/1 104/6/1 103/6/1
f 107/6/1 103/6/1 102/6/1
f 107/6/1 102/6/1 101/6/1
f 108/6/1 104/6/1 107/6/1
f 109/7/1 100/7/1 99/7/1
f 110/11/1 86/11/1 100/11/1
f 110/7/1 100/7/1 109/7/1
f 111/11/1 106/11/1 105/11/1
f 111/11/1 105/11/1 85/11/1
f 112/11/1 106/11/1 111/11/1
f 113/7/1 109/7/1 108/7/1
f 113/11/1 106/11/1 112/11/1
f 113/7/1 108/7/1 107/7/1
f 113/7/1 107/7/1 106/7/1
f 114/11/1 110/11/1 109/11/1
f 114/7/1 109/7/1 113/7/1
f 115/11/1 86/11/1 110/11/1
f 115/11/1 110/11/1 114/11/1
f 116/11/1 86/11/1 115/11/1
f 117/11/1 114/11/1 113/11/1
f 117/11/1 115/11/1 114/11/1
f 117/11/1 113/11/1 112/11/1
f 118/11/1 115/11/1 117/11/1
f 125/11/1 120/11/1 119/11/1
f 125/11/1 121/11/1 120/11/1
f 126/11/1 121/11/1 125/11/1
f 127/11/1 124/11/1 123/11/1
f 127/11/1 123/11/1 122/11/1
f 128/11/1 124/11/1 127/11/1
f 129/11/1 125/11/1 119/11/1
f 130/11/1 125/11/1 129/11/1
f 131/11/1 124/11/1 128/11/1
f 132/11/1 124/11/1 131/11/1
f 137/11/1 134/11/1 133/11/1
f 138/11/1 134/11/1 137/11/1
f 139/11/1 136/11/1 135/11/1
f 140/11/1 136/11/1 139/11/1
f 143/11/1 142/11/1 141/11/1
f 144/11/1 142/11/1 143/11/1
f 151/11/1 146/11/1 145/11/1
f 152/4/1 147/4/1 146/4/1
f 152/11/1 146/11/1 151/11/1
f 153/5/1 148/5/1 147/5/1
f 153/4/1 147/4/1 152/4/1
f 154/4/1 149/4/1 148/4/1
f 154/5/1 148/5/1 153/5/1
f 155/11/1 150/11/1 149/11/1
f 155/4/1 149/4/1 154/4/1
f 156/11/1 150/11/1 155/11/1
f 157/11/1 154/11/1 153/11/1
f 157/11/1 155/11/1 154/11/1
f 157/11/1 153/11/1 152/11/1
f 158/11/1 155/11/1 157/11/1
f 161/11/1 160/11/1 159/11/1
f 162/11/1 160/11/1 161/11/1
f 167/11/1 164/11/1 163/11/1
f 168/11/1 164/11/1 167/11/1
f 169/11/1 166/11/1 165/11/1
f 170/11/1 166/11/1 169/11/1
f 171/3/2 172/3/2 175/3/2
f 175/3/2 172/3/2 176/3/2
f 173/3/2 174/3/2 177/3/2
f 177/3/2 174/3/2 178/3/2
f 175/2/2 176/2/2 179/2/2
f 179/2/2 176/2/2 180/2/2
f 177/2/2 178/2/2 181/2/2
f 181/2/2 178/2/2 182/2/2
f 183/11/2 184/11/2 185/11/2
f 185/11/2 184/11/2 186/11/2
f 187/11/2 188/11/2 191/11/2
f 191/11/2 188/11/2 192/11/2
f 189/11/2 190/11/2 193/11/2
f 193/11/2 190/11/2 194/11/2
f 195/11/2 196/11/2 197/11/2
f 197/11/2 196/11/2 198/11/2
f 199/11/2 200/11/2 205/11/2
f 200/4/2 201/4/2 206/4/2
f 205/11/2 200/11/2 206/11/2
f 201/5/2 202/5/2 207/5/2
f 206/4/2 201/4/2 207/4/2
f 202/4/2 203/4/2 208/4/2
f 207/5/2 202/5/2 208/5/2
f 203/11/2 204/11/2 209/11/2
f 208/4/2 203/4/2 209/4/2
f 209/11/2 204/11/2 210/11/2
f 207/11/2 208/11/2 211/11/2
f 208/11/2 209/11/2 211/11/2
f 206/11/2 207/11/2 211/11/2
f 211/11/2 209/11/2 212/11/2
f 213/11/2 214/11/2 217/11/2
f 217/11/2 214/11/2 218/11/2
f 215/11/2 216/11/2 219/11/2
f 219/11/2 216/11/2 220/11/2
f 221/11/2 222/11/2 223/11/2
f 223/11/2 222/11/2 224/11/2
f 223/8/2 224/8/2 225/8/2
f 225/8/2 224/8/2 226/8/2
f 225/7/2 226/7/2 227/7/2
f 227/7/2 226/7/2 228/7/2
f 221/11/2 223/11/2 229/11/2
f 223/8/2 225/8/2 229/8/2
f 225/7/2 227/7/2 230/7/2
f 229/8/2 225/8/2 230/8/2
f 227/6/2 228/6/2 231/6/2
f 230/7/2 227/7/2 231/7/2
f 228/7/2 226/7/2 232/7/2
f 231/6/2 228/6/2 232/6/2
f 226/8/2 224/8/2 233/8/2
f 232/7/2 226/7/2 233/7/2
f 224/11/2 222/11/2 234/11/2
f 233/8/2 224/8/2 234/8/2
f 229/11/2 230/11/2 235/11/2
f 221/11/2 229/11/2 235/11/2
f 235/11/2 230/11/2 236/11/2
f 230/8/2 231/8/2 237/8/2
f 236/11/2 230/11/2 237/11/2
f 231/7/2 232/7/2 238/7/2
f 237/8/2 231/8/2 238/8/2
f 232/8/2 233/8/2 239/8/2
f 238/7/2 232/7/2 239/7/2
f 233/11/2 234/11/2 240/11/2
f 239/8/2 233/8/2 240/8/2
f 234/11/2 222/11/2 241/11/2
f 240/11/2 234/11/2 241/11/2
f 241/11/2 222/11/2 242/11/2
f 237/11/2 238/11/2 243/11/2
f 240/11/2 241/11/2 243/11/2
f 239/11/2 240/11/2 243/11/2
f 238/11/2 239/11/2 243/11/2
f 236/11/2 237/11/2 243/11/2
f 243/11/2 241/11/2 244/11/2
f 245/11/2 246/11/2 249/11/2
f 249/11/2 246/11/2 250/11/2
f 247/11/2 248/11/2 251/11/2
f 251/11/2 248/11/2 252/11/2
f 253/11/2 254/11/2 257/11/2
f 257/11/2 254/11/2 258/11/2
f 255/11/2 256/11/2 259/11/2
f 259/11/2 256/11/2 260/11/2
f 261/11/2 262/11/2 264/11/2
f 264/11/2 262/11/2 265/11/2
f 265/11/2 262/11/2 266/11/2
f 266/11/2 262/11/2 267/11/2
f 263/11/2 264/11/2 269/11/2
f 264/11/2 265/11/2 269/11/2
f 265/8/2 266/8/2 270/8/2
f 269/11/2 265/11/2 270/11/2
f 270/8/2 266/8/2 271/8/2
f 271/8/2 266/8/2 272/8/2
f 267/11/2 268/11/2 273/11/2
f 272/8/2 266/8/2 273/8/2
f 266/11/2 267/11/2 273/11/2
f 273/11/2 268/11/2 274/11/2
f 270/8/2 271/8/2 275/8/2
f 269/8/2 270/8/2 275/8/2
f 271/7/2 272/7/2 276/7/2
f 275/8/2 271/8/2 276/8/2
f 273/8/2 274/8/2 277/8/2
f 276/7/2 272/7/2 277/7/2
f 272/8/2 273/8/2 277/8/2
f 277/8/2 274/8/2 278/8/2
f 269/8/2 275/8/2 279/8/2
f 275/7/2 276/7/2 279/7/2
f 277/7/2 278/7/2 279/7/2
f 276/7/2 277/7/2 279/7/2
f 279/7/2 278/7/2 280/7/2
f 280/7/2 278/7/2 281/7/2
f 278/8/2 274/8/2 282/8/2
f 281/7/2 278/7/2 282/7/2
f 280/7/2 281/7/2 283/7/2
f 279/6/2 280/6/2 283/6/2
f 283/7/2 281/7/2 284/7/2
f 284/7/2 281/7/2 285/7/2
f 281/6/2 282/6/2 286/6/2
f 285/7/2 281/7/2 286/7/2
f 269/8/2 279/8/2 287/8/2
f 279/6/2 283/6/2 287/6/2
f 283/6/2 284/6/2 287/6/2
f 287/6/2 284/6/2 288/6/2
f 284/7/2 285/7/2 289/7/2
f 288/6/2 284/6/2 289/6/2
f 285/6/2 286/6/2 290/6/2
f 289/7/2 285/7/2 290/7/2
f 286/6/2 282/6/2 291/6/2
f 290/6/2 286/6/2 291/6/2
f 282/8/2 274/8/2 292/8/2
f 291/6/2 282/6/2 292/6/2
f 263/11/2 269/11/2 293/11/2
f 287/8/2 288/8/2 293/8/2
f 269/8/2 287/8/2 293/8/2
f 293/8/2 288/8/2 294/8/2
f 290/6/2 291/6/2 295/6/2
f 294/8/2 288/8/2 295/8/2
f 289/6/2 290/6/2 295/6/2
f 288/6/2 289/6/2 295/6/2
f 291/8/2 292/8/2 296/8/2
f 295/6/2 291/6/2 296/6/2
f 292/8/2 274/8/2 297/8/2
f 296/8/2 292/8/2 297/8/2
f 274/11/2 268/11/2 298/11/2
f 297/8/2 274/8/2 298/8/2
f 293/11/2 294/11/2 299/11/2
f 263/11/2 293/11/2 299/11/2
f 299/11/2 294/11/2 300/11/2
f 296/8/2 297/8/2 301/8/2
f 300/11/2 294/11/2 301/11/2
f 295/8/2 296/8/2 301/8/2
f 294/8/2 295/8/2 301/8/2
f 297/11/2 298/11/2 302/11/2
f 301/8/2 297/8/2 302/8/2
f 298/11/2 268/11/2 303/11/2
f 302/11/2 298/11/2 303/11/2
f 303/11/2 268/11/2 304/11/2
f 301/11/2 302/11/2 305/11/2
f 302/11/2 303/11/2 305/11/2
f 300/11/2 301/11/2 305/11/2
f 305/11/2 303/11/2 306/11/2
f 310/11/3 308/11/3 307/11/3
f 311/11/3 308/11/3 310/11/3
f 312/11/3 308/11/3 311/11/3
f 313/11/3 308/11/3 312/11/3
f 314/11/3 308/11/3 313/11/3
f 316/11/3 310/11/3 309/11/3
f 316/11/3 311/11/3 310/11/3
f 317/8/3 312/8/3 311/8/3
f 317/11/3 311/11/3 316/11/3
f 318/7/3 313/7/3 312/7/3
f 318/8/3 312/8/3 317/8/3
f 319/7/3 313/7/3 318/7/3
f 320/7/3 313/7/3 319/7/3
f 321/11/3 315/11/3 314/11/3
f 321/7/3 313/7/3 320/7/3
f 321/11/3 314/11/3 313/11/3
f 322/11/3 315/11/3 321/11/3
f 323/7/3 319/7/3 318/7/3
f 323/7/3 318/7/3 317/7/3
f 324/6/3 320/6/3 319/6/3
f 324/7/3 319/7/3 323/7/3
f 325/7/3 322/7/3 321/7/3
f 325/6/3 320/6/3 324/6/3
f 325/7/3 321/7/3 320/7/3
f 326/7/3 322/7/3 325/7/3
f 327/7/3 323/7/3 317/7/3
f 327/6/3 324/6/3 323/6/3
f 327/6/3 326/6/3 325/6/3
f 327/6/3 325/6/3 324/6/3
f 328/6/3 326/6/3 327/6/3
f 329/6/3 326/6/3 328/6/3
f 330/7/3 322/7/3 326/7/3
f 330/6/3 326/6/3 329/6/3
f 331/6/3 329/6/3 328/6/3
f 331/7/3 328/7/3 327/7/3
f 332/7/3 330/7/3 329/7/3
f 332/6/3 329/6/3 331/6/3
f 333/7/3 322/7/3 330/7/3
f 333/7/3 330/7/3 332/7/3
f 334/11/3 315/11/3 322/11/3
f 334/7/3 322/7/3 333/7/3
f 335/7/3 332/7/3 331/7/3
f 335/7/3 333/7/3 332/7/3
f 335/8/3 317/8/3 316/8/3
f 335/7/3 331/7/3 327/7/3
f 335/7/3 327/7/3 317/7/3
f 336/7/3 333/7/3 335/7/3
f 337/7/3 333/7/3 336/7/3
f 338/8/3 334/8/3 333/8/3
f 338/7/3 333/7/3 337/7/3
f 339/11/3 316/11/3 309/11/3
f 339/8/3 335/8/3 316/8/3
f 339/8/3 336/8/3 335/8/3
f 340/8/3 336/8/3 339/8/3
f 341/7/3 337/7/3 336/7/3
f 341/8/3 336/8/3 340/8/3
f 342/8/3 338/8/3 337/8/3
f 342/7/3 337/7/3 341/7/3
f 343/8/3 334/8/3 338/8/3
f 343/8/3 338/8/3 342/8/3
f 344/11/3 315/11/3 334/11/3
f 344/8/3 334/8/3 343/8/3
f 345/11/3 340/11/3 339/11/3
f 345/11/3 339/11/3 309/11/3
f 346/11/3 340/11/3 345/11/3
f 347/8/3 343/8/3 342/8/3
f 347/11/3 340/11/3 346/11/3
f 347/8/3 342/8/3 341/8/3
f 347/8/3 341/8/3 340/8/3
f 348/11/3 344/11/3 343/11/3
f 348/8/3 343/8/3 347/8/3
f 349/11/3 315/11/3 344/11/3
f 349/11/3 344/11/3 348/11/3
f 350/11/3 315/11/3 349/11/3
f 351/11/3 348/11/3 347/11/3
f 351/11/3 349/11/3 348/11/3
f 351/11/3 347/11/3 346/11/3
f 352/11/3 349/11/3 351/11/3
f 357/11/3 354/11/3 353/11/3
f 358/11/3 354/11/3 357/11/3
f 359/11/3 356/11/3 355/11/3
f 360/11/3 356/11/3 359/11/3
f 365/11/3 362/11/3 361/11/3
f 366/11/3 362/11/3 365/11/3
f 367/11/3 364/11/3 363/11/3
f 368/11/3 364/11/3 367/11/3
f 371/11/3 370/11/3 369/11/3
f 372/11/3 370/11/3 371/11/3
f 373/11/3 370/11/3 372/11/3
f 375/8/3 372/8/3 371/8/3
f 376/11/3 374/11/3 373/11/3
f 376/8/3 372/8/3 375/8/3
f 376/11/3 373/11/3 372/11/3
f 377/11/3 374/11/3 376/11/3
f 378/11/3 371/11/3 369/11/3
f 378/8/3 375/8/3 371/8/3
f 379/7/3 376/7/3 375/7/3
f 379/8/3 375/8/3 378/8/3
f 380/8/3 377/8/3 376/8/3
f 380/7/3 376/7/3 379/7/3
f 381/11/3 374/11/3 377/11/3
f 381/8/3 377/8/3 380/8/3
f 382/7/3 379/7/3 378/7/3
f 382/11/3 378/11/3 369/11/3
f 383/6/3 380/6/3 379/6/3
f 383/7/3 379/7/3 382/7/3
f 384/7/3 381/7/3 380/7/3
f 384/6/3 380/6/3 383/6/3
f 385/11/3 374/11/3 381/11/3
f 385/7/3 381/7/3 384/7/3
f 386/7/3 384/7/3 383/7/3
f 386/8/3 383/8/3 382/8/3
f 387/8/3 385/8/3 384/8/3
f 387/7/3 384/7/3 386/7/3
f 388/11/3 374/11/3 385/11/3
f 388/8/3 385/8/3 387/8/3
f 389/11/3 382/11/3 369/11/3
f 389/8/3 387/8/3 386/8/3
f 389/8/3 386/8/3 382/8/3
f 390/11/3 388/11/3 387/11/3
f 390/8/3 387/8/3 389/8/3
f 391/11/3 374/11/3 388/11/3
f 391/11/3 388/11/3 390/11/3
f 392/11/3 374/11/3 391/11/3
f 393/11/3 390/11/3 389/11/3
f 393/11/3 389/11/3 369/11/3
f 393/11/3 391/11/3 390/11/3
f 394/11/3 391/11/3 393/11/3
f 397/11/3 396/11/3 395/11/3
f 398/11/3 396/11/3 397/11/3
f 401/11/3 400/11/3 399/11/3
f 402/11/3 400/11/3 401/11/3
f 406/3/3 404/3/3 403/3/3
f 406/1/3 405/1/3 404/1/3
f 407/1/3 405/1/3 406/1/3
f 408/3/3 406/3/3 403/3/3
f 409/2/3 407/2/3 406/2/3
f 409/3/3 406/3/3 408/3/3
f 410/2/3 407/2/3 409/2/3
f 416/11/3 412/11/3 411/11/3
f 417/11/3 412/11/3 416/11/3
f 418/11/3 412/11/3 417/11/3
f 419/11/3 414/11/3 413/11/3
f 420/11/3 414/11/3 419/11/3
f 422/11/3 416/11/3 415/11/3
f 422/11/3 417/11/3 416/11/3
f 423/10/3 418/10/3 417/10/3
f 423/11/3 417/11/3 422/11/3
f 424/10/3 418/10/3 423/10/3
f 425/4/3 420/4/3 419/4/3
f 426/11/3 421/11/3 420/11/3
f 426/4/3 420/4/3 425/4/3
f 427/11/3 422/11/3 415/11/3
f 427/10/3 423/10/3 422/10/3
f 428/11/3 424/11/3 423/11/3
f 428/10/3 423/10/3 427/10/3
f 429/11/3 424/11/3 428/11/3
f 430/5/3 426/5/3 425/5/3
f 431/11/3 421/11/3 426/11/3
f 431/5/3 426/5/3 430/5/3
f 432/11/3 427/11/3 415/11/3
f 432/11/3 428/11/3 427/11/3
f 433/11/3 428/11/3 432/11/3
f 434/10/3 429/10/3 428/10/3
f 434/11/3 428/11/3 433/11/3
f 435/10/3 429/10/3 434/10/3
f 436/4/3 431/4/3 430/4/3
f 437/11/3 421/11/3 431/11/3
f 437/4/3 431/4/3 436/4/3
f 438/11/3 421/11/3 437/11/3
f 439/11/3 435/11/3 434/11/3
f 439/11/3 434/11/3 433/11/3
f 440/11/3 435/11/3 439/11/3
f 441/11/3 437/11/3 436/11/3
f 442/11/3 437/11/3 441/11/3
f 445/6/3 444/6/3 443/6/3
f 446/6/3 444/6/3 445/6/3
f 449/11/3 448/11/3 447/11/3
f 450/11/3 448/11/3 449/11/3
f 453/11/3 452/11/3 451/11/3
f 454/11/3 452/11/3 453/11/3
f 458/3/3 456/3/3 455/3/3
f 459/1/3 457/1/3 456/1/3
f 459/3/3 456/3/3 458/3/3
f 460/1/3 457/1/3 459/1/3
f 463/6/3 462/6/3 461/6/3
f 464/6/3 462/6/3 463/6/3
f 468/3/3 466/3/3 465/3/3
f 468/1/3 467/1/3 466/1/3
f 469/1/3 467/1/3 468/1/3
f 470/3/3 468/3/3 465/3/3
f 470/3/3 469/3/3 468/3/3
f 471/3/3 469/3/3 470/3/3
f 474/7/3 473/7/3 472/7/3
f 475/7/3 473/7/3 474/7/3
f 476/7/4 477/7/4 478/7/4
f 478/7/4 477/7/4 479/7/4
f 480/3/4 481/3/4 483/3/4
f 481/1/4 482/1/4 483/1/4
f 483/1/4 482/1/4 484/1/4
f 480/3/4 483/3/4 485/3/4
f 483/3/4 484/3/4 485/3/4
f 485/3/4 484/3/4 486/3/4
f 487/3/4 488/3/4 490/3/4
f 488/1/4 489/1/4 491/1/4
f 490/3/4 488/3/4 491/3/4
f 491/1/4 489/1/4 492/1/4
f 493/6/4 494/6/4 495/6/4
f 495/6/4 494/6/4 496/6/4
f 497/6/4 498/6/4 499/6/4
f 499/6/4 498/6/4 500/6/4
f 501/11/4 502/11/4 503/11/4
f 503/11/4 502/11/4 504/11/4
f 505/11/4 506/11/4 507/11/4
f 507/11/4 506/11/4 508/11/4
f 509/3/4 510/3/4 512/3/4
f 510/1/4 511/1/4 512/1/4
f 512/1/4 511/1/4 513/1/4
f 509/3/4 512/3/4 514/3/4
f 512/2/4 513/2/4 515/2/4
f 514/3/4 512/3/4 515/3/4
f 515/2/4 513/2/4 516/2/4
f 517/11/4 518/11/4 522/11/4
f 522/11/4 518/11/4 523/11/4
f 523/11/4 518/11/4 524/11/4
f 519/11/4 520/11/4 525/11/4
f 525/11/4 520/11/4 526/11/4
f 521/11/4 522/11/4 528/11/4
f 522/11/4 523/11/4 528/11/4
f 523/10/4 524/10/4 529/10/4
f 528/11/4 523/11/4 529/11/4
f 529/10/4 524/10/4 530/10/4
f 525/4/4 526/4/4 531/4/4
f 526/11/4 527/11/4 532/11/4
f 531/4/4 526/4/4 532/4/4
f 521/11/4 528/11/4 533/11/4
f 528/10/4 529/10/4 533/10/4
f 529/11/4 530/11/4 534/11/4
f 533/10/4 529/10/4 534/10/4
f 534/11/4 530/11/4 535/11/4
f 531/5/4 532/5/4 536/5/4
f 532/11/4 527/11/4 537/11/4
f 536/5/4 532/5/4 537/5/4
f 521/11/4 533/11/4 538/11/4
f 533/11/4 534/11/4 538/11/4
f 538/11/4 534/11/4 539/11/4
f 534/10/4 535/10/4 540/10/4
f 539/11/4 534/11/4 540/11/4
f 540/10/4 535/10/4 541/10/4
f 536/4/4 537/4/4 542/4/4
f 537/11/4 527/11/4 543/11/4
f 542/4/4 537/4/4 543/4/4
f 543/11/4 527/11/4 544/11/4
f 540/11/4 541/11/4 545/11/4
f 539/11/4 540/11/4 545/11/4
f 545/11/4 541/11/4 546/11/4
f 542/11/4 543/11/4 547/11/4
f 547/11/4 543/11/4 548/11/4
f 549/11/4 550/11/4 551/11/4
f 551/11/4 550/11/4 552/11/4
f 553/11/4 554/11/4 555/11/4
f 555/11/4 554/11/4 556/11/4
f 557/11/4 558/11/4 559/11/4
f 559/11/4 558/11/4 560/11/4
f 560/11/4 558/11/4 561/11/4
f 559/8/4 560/8/4 563/8/4
f 561/11/4 562/11/4 564/11/4
f 563/8/4 560/8/4 564/8/4
f 560/11/4 561/11/4 564/11/4
f 564/11/4 562/11/4 565/11/4
f 557/11/4 559/11/4 566/11/4
f 559/8/4 563/8/4 566/8/4
f 563/7/4 564/7/4 567/7/4
f 566/8/4 563/8/4 567/8/4
f 564/8/4 565/8/4 568/8/4
f 567/7/4 564/7/4 568/7/4
f 565/11/4 562/11/4 569/11/4
f 568/8/4 565/8/4 569/8/4
f 566/7/4 567/7/4 570/7/4
f 557/11/4 566/11/4 570/11/4
f 567/6/4 568/6/4 571/6/4
f 570/7/4 567/7/4 571/7/4
f 568/7/4 569/7/4 572/7/4
f 571/6/4 568/6/4 572/6/4
f 569/11/4 562/11/4 573/11/4
f 572/7/4 569/7/4 573/7/4
f 571/7/4 572/7/4 574/7/4
f 570/8/4 571/8/4 574/8/4
f 572/9/4 573/9/4 575/9/4
f 574/7/4 572/7/4 575/7/4
f 573/11/4 562/11/4 576/11/4
f 575/9/4 573/9/4 576/9/4
f 557/11/4 570/11/4 577/11/4
f 574/8/4 575/8/4 577/8/4
f 570/8/4 574/8/4 577/8/4
f 575/11/4 576/11/4 578/11/4
f 577/8/4 575/8/4 578/8/4
f 576/11/4 562/11/4 579/11/4
f 578/11/4 576/11/4 579/11/4
f 579/11/4 562/11/4 580/11/4
f 577/11/4 578/11/4 581/11/4
f 557/11/4 577/11/4 581/11/4
f 578/11/4 579/11/4 581/11/4
f 581/11/4 579/11/4 582/11/4
f 583/11/4 584/11/4 587/11/4
f 587/11/4 584/11/4 588/11/4
f 585/11/4 586/11/4 589/11/4
f 589/11/4 586/11/4 590/11/4
f 591/11/4 592/11/4 595/11/4
f 595/11/4 592/11/4 596/11/4
f 593/11/4 594/11/4 597/11/4
f 597/11/4 594/11/4 598/11/4
f 599/11/4 600/11/4 602/11/4
f 602/11/4 600/11/4 603/11/4
f 603/11/4 600/11/4 604/11/4
f 604/11/4 600/11/4 605/11/4
f 605/11/4 600/11/4 606/11/4
f 601/11/4 602/11/4 608/11/4
f 602/11/4 603/11/4 608/11/4
f 603/8/4 604/8/4 609/8/4
f 608/11/4 603/11/4 609/11/4
f 604/7/4 605/7/4 610/7/4
f 609/8/4 604/8/4 610/8/4
f 610/7/4 605/7/4 611/7/4
f 611/7/4 605/7/4 612/7/4
f 606/11/4 607/11/4 613/11/4
f 612/7/4 605/7/4 613/7/4
f 605/11/4 606/11/4 613/11/4
f 613/11/4 607/11/4 614/11/4
f 610/7/4 611/7/4 615/7/4
f 609/7/4 610/7/4 615/7/4
f 611/6/4 612/6/4 616/6/4
f 615/7/4 611/7/4 616/7/4
f 613/7/4 614/7/4 617/7/4
f 616/6/4 612/6/4 617/6/4
f 612/7/4 613/7/4 617/7/4
f 617/7/4 614/7/4 618/7/4
f 609/7/4 615/7/4 619/7/4
f 615/6/4 616/6/4 619/6/4
f 617/6/4 618/6/4 619/6/4
f 616/6/4 617/6/4 619/6/4
f 619/6/4 618/6/4 620/6/4
f 620/6/4 618/6/4 621/6/4
f 618/7/4 614/7/4 622/7/4
f 621/6/4 618/6/4 622/6/4
f 620/6/4 621/6/4 623/6/4
f 619/7/4 620/7/4 623/7/4
f 621/7/4 622/7/4 624/7/4
f 623/6/4 621/6/4 624/6/4
f 622/7/4 614/7/4 625/7/4
f 624/7/4 622/7/4 625/7/4
f 614/11/4 607/11/4 626/11/4
f 625/7/4 614/7/4 626/7/4
f 623/7/4 624/7/4 627/7/4
f 624/7/4 625/7/4 627/7/4
f 608/8/4 609/8/4 627/8/4
f 619/7/4 623/7/4 627/7/4
f 609/7/4 619/7/4 627/7/4
f 627/7/4 625/7/4 628/7/4
f 628/7/4 625/7/4 629/7/4
f 625/8/4 626/8/4 630/8/4
f 629/7/4 625/7/4 630/7/4
f 601/11/4 608/11/4 631/11/4
f 608/8/4 627/8/4 631/8/4
f 627/8/4 628/8/4 631/8/4
f 631/8/4 628/8/4 632/8/4
f 628/7/4 629/7/4 633/7/4
f 632/8/4 628/8/4 633/8/4
f 629/8/4 630/8/4 634/8/4
f 633/7/4 629/7/4 634/7/4
f 630/8/4 626/8/4 635/8/4
f 634/8/4 630/8/4 635/8/4
f 626/11/4 607/11/4 636/11/4
f 635/8/4 626/8/4 636/8/4
f 631/11/4 632/11/4 637/11/4
f 601/11/4 631/11/4 637/11/4
f 637/11/4 632/11/4 638/11/4
f 634/8/4 635/8/4 639/8/4
f 638/11/4 632/11/4 639/11/4
f 633/8/4 634/8/4 639/8/4
f 632/8/4 633/8/4 639/8/4
f 635/11/4 636/11/4 640/11/4
f 639/8/4 635/8/4 640/8/4
f 636/11/4 607/11/4 641/11/4
f 640/11/4 636/11/4 641/11/4
f 641/11/4 607/11/4 642/11/4
f 639/11/4 640/11/4 643/11/4
f 640/11/4 641/11/4 643/11/4
f 638/11/4 639/11/4 643/11/4
f 643/11/4 641/11/4 644/11/4
f 647/11/5 646/11/5 645/11/5
f 648/11/5 646/11/5 647/11/5
f 653/11/5 650/11/5 649/11/5
f 654/11/5 650/11/5 653/11/5
f 655/11/5 652/11/5 651/11/5
f 656/11/5 652/11/5 655/11/5
f 660/11/5 658/11/5 657/11/5
f 661/11/5 658/11/5 660/11/5
f 663/11/5 660/11/5 659/11/5
f 663/11/5 662/11/5 661/11/5
f 663/11/5 661/11/5 660/11/5
f 664/11/5 662/11/5 663/11/5
f 665/11/5 662/11/5 664/11/5
f 666/11/5 662/11/5 665/11/5
f 667/11/5 662/11/5 666/11/5
f 668/11/5 662/11/5 667/11/5
f 669/11/5 663/11/5 659/11/5
f 674/11/5 662/11/5 668/11/5
f 675/11/5 673/11/5 672/11/5
f 675/11/5 674/11/5 673/11/5
f 675/11/5 669/11/5 659/11/5
f 675/11/5 670/11/5 669/11/5
f 675/11/5 672/11/5 671/11/5
f 675/11/5 671/11/5 670/11/5
f 676/11/5 674/11/5 675/11/5
f 677/11/5 662/11/5 674/11/5
f 677/11/5 674/11/5 676/11/5
f 678/11/5 662/11/5 677/11/5
f 679/11/5 677/11/5 676/11/5
f 680/11/5 677/11/5 679/11/5
f 685/11/5 682/11/5 681/11/5
f 686/11/5 682/11/5 685/11/5
f 687/11/5 684/11/5 683/11/5
f 688/11/5 684/11/5 687/11/5
f 693/11/5 690/11/5 689/11/5
f 694/11/5 690/11/5 693/11/5
f 695/11/5 692/11/5 691/11/5
f 696/11/5 692/11/5 695/11/5
f 699/3/5 698/3/5 697/3/5
f 700/3/5 698/3/5 699/3/5
f 701/3/5 698/3/5 700/3/5
f 704/3/5 702/3/5 701/3/5
f 704/3/5 701/3/5 700/3/5
f 705/3/5 702/3/5 704/3/5
f 706/3/5 702/3/5 705/3/5
f 707/3/5 704/3/5 703/3/5
f 707/3/5 705/3/5 704/3/5
f 708/3/5 705/3/5 707/3/5
f 711/6/5 710/6/5 709/6/5
f 712/6/5 710/6/5 711/6/5
f 715/6/5 714/6/5 713/6/5
f 716/6/5 714/6/5 715/6/5
f 719/7/5 718/7/5 717/7/5
f 720/7/5 718/7/5 719/7/5
f 723/7/5 722/7/5 721/7/5
f 724/7/5 722/7/5 723/7/5
f 725/1/6 726/1/6 728/1/6
f 726/2/6 727/2/6 729/2/6
f 728/1/6 726/1/6 729/1/6
f 729/2/6 727/2/6 730/2/6
f 725/1/6 728/1/6 731/1/6
f 728/3/6 729/3/6 732/3/6
f 731/1/6 728/1/6 732/1/6
f 729/3/6 730/3/6 732/3/6
f 732/3/6 730/3/6 733/3/6
f 730/2/6 727/2/6 734/2/6
f 733/3/6 730/3/6 734/3/6
f 734/2/6 727/2/6 735/2/6
f 734/3/6 735/3/6 739/3/6
f 733/3/6 734/3/6 739/3/6
f 739/3/6 735/3/6 740/3/6
f 735/1/6 736/1/6 741/1/6
f 740/3/6 735/3/6 741/3/6
f 741/1/6 736/1/6 742/1/6
f 739/3/6 740/3/6 743/3/6
f 737/1/6 738/1/6 743/1/6
f 738/3/6 739/3/6 743/3/6
f 743/3/6 740/3/6 744/3/6
f 740/2/6 741/2/6 745/2/6
f 744/3/6 740/3/6 745/3/6
f 743/1/6 744/1/6 746/1/6
f 737/1/6 743/1/6 746/1/6
f 744/2/6 745/2/6 747/2/6
f 746/1/6 744/1/6 747/1/6
f 745/2/6 741/2/6 748/2/6
f 747/2/6 745/2/6 748/2/6
f 749/11/6 750/11/6 753/11/6
f 753/11/6 750/11/6 754/11/6
f 751/11/6 752/11/6 755/11/6
f 755/11/6 752/11/6 756/11/6
f 757/11/6 758/11/6 761/11/6
f 761/11/6 758/11/6 762/11/6
f 759/11/6 760/11/6 763/11/6
f 763/11/6 760/11/6 764/11/6
f 765/11/6 766/11/6 768/11/6
f 768/11/6 766/11/6 769/11/6
f 769/11/6 766/11/6 770/11/6
f 770/11/6 766/11/6 771/11/6
f 767/11/6 768/11/6 773/11/6
f 768/11/6 769/11/6 773/11/6
f 769/7/6 770/7/6 774/7/6
f 773/11/6 769/11/6 774/11/6
f 771/11/6 772/11/6 775/11/6
f 774/7/6 770/7/6 775/7/6
f 770/11/6 771/11/6 775/11/6
f 775/11/6 772/11/6 776/11/6
f 773/7/6 774/7/6 777/7/6
f 767/11/6 773/11/6 777/11/6
f 777/7/6 774/7/6 778/7/6
f 775/7/6 776/7/6 779/7/6
f 776/11/6 772/11/6 780/11/6
f 779/7/6 776/7/6 780/7/6
f 777/11/6 778/11/6 781/11/6
f 767/11/6 777/11/6 781/11/6
f 781/11/6 778/11/6 782/11/6
f 778/7/6 779/7/6 783/7/6
f 782/11/6 778/11/6 783/11/6
f 779/11/6 780/11/6 784/11/6
f 783/7/6 779/7/6 784/7/6
f 780/11/6 772/11/6 785/11/6
f 784/11/6 780/11/6 785/11/6
f 785/11/6 772/11/6 786/11/6
f 783/11/6 784/11/6 787/11/6
f 784/11/6 785/11/6 787/11/6
f 782/11/6 783/11/6 787/11/6
f 787/11/6 785/11/6 788/11/6
f 789/7/6 790/7/6 791/7/6
f 791/7/6 790/7/6 792/7/6
f 791/6/6 792/6/6 793/6/6
f 793/6/6 792/6/6 794/6/6
f 795/6/6 796/6/6 797/6/6
f 797/6/6 796/6/6 798/6/6
f 797/7/6 798/7/6 799/7/6
f 799/7/6 798/7/6 800/7/6
f 801/11/6 802/11/6 805/11/6
f 805/11/6 802/11/6 806/11/6
f 803/11/6 804/11/6 807/11/6
f 807/11/6 804/11/6 808/11/6
f 809/11/6 810/11/6 813/11/6
f 813/11/6 810/11/6 814/11/6
f 811/11/6 812/11/6 815/11/6
f 815/11/6 812/11/6 816/11/6
f 817/11/6 818/11/6 820/11/6
f 820/11/6 818/11/6 821/11/6
f 821/11/6 818/11/6 822/11/6
f 822/11/6 818/11/6 823/11/6
f 819/11/6 820/11/6 825/11/6
f 820/11/6 821/11/6 825/11/6
f 821/6/6 822/6/6 826/6/6
f 825/11/6 821/11/6 826/11/6
f 826/6/6 822/6/6 827/6/6
f 827/6/6 822/6/6 828/6/6
f 828/6/6 822/6/6 829/6/6
f 829/6/6 822/6/6 830/6/6
f 823/11/6 824/11/6 831/11/6
f 830/6/6 822/6/6 831/6/6
f 822/11/6 823/11/6 831/11/6
f 831/11/6 824/11/6 832/11/6
f 825/6/6 826/6/6 833/6/6
f 831/6/6 832/6/6 834/6/6
f 825/6/6 833/6/6 835/6/6
f 834/6/6 832/6/6 836/6/6
f 825/6/6 835/6/6 837/6/6
f 836/6/6 832/6/6 838/6/6
f 825/6/6 837/6/6 839/6/6
f 838/6/6 832/6/6 840/6/6
f 825/6/6 839/6/6 841/6/6
f 819/11/6 825/11/6 841/11/6
f 841/6/6 839/6/6 842/6/6
f 840/6/6 832/6/6 847/6/6
f 832/11/6 824/11/6 848/11/6
f 847/6/6 832/6/6 848/6/6
f 819/11/6 841/11/6 849/11/6
f 841/11/6 842/11/6 849/11/6
f 849/11/6 842/11/6 850/11/6
f 846/6/6 847/6/6 851/6/6
f 850/11/6 842/11/6 851/11/6
f 845/6/6 846/6/6 851/6/6
f 842/6/6 843/6/6 851/6/6
f 843/6/6 844/6/6 851/6/6
f 844/6/6 845/6/6 851/6/6
f 847/11/6 848/11/6 852/11/6
f 851/6/6 847/6/6 852/6/6
f 848/11/6 824/11/6 853/11/6
f 852/11/6 848/11/6 853/11/6
f 853/11/6 824/11/6 854/11/6
f 851/11/6 852/11/6 855/11/6
f 852/11/6 853/11/6 855/11/6
f 850/11/6 851/11/6 855/11/6
f 855/11/6 853/11/6 856/11/6
f 857/11/6 858/11/6 861/11/6
f 861/11/6 858/11/6 862/11/6
f 859/11/6 860/11/6 863/11/6
f 863/11/6 860/11/6 864/11/6
f 865/11/6 866/11/6 869/11/6
f 869/11/6 866/11/6 870/11/6
f 867/11/6 868/11/6 871/11/6
f 871/11/6 868/11/6 872/11/6
f 873/11/6 874/11/6 876/11/6
f 876/11/6 874/11/6 877/11/6
f 877/11/6 874/11/6 878/11/6
f 878/11/6 874/11/6 879/11/6
f 875/11/6 876/11/6 881/11/6
f 876/11/6 877/11/6 881/11/6
f 877/4/6 878/4/6 882/4/6
f 881/11/6 877/11/6 882/11/6
f 879/11/6 880/11/6 883/11/6
f 882/4/6 878/4/6 883/4/6
f 878/11/6 879/11/6 883/11/6
f 883/11/6 880/11/6 884/11/6
f 881/4/6 882/4/6 885/4/6
f 875/11/6 881/11/6 885/11/6
f 882/5/6 883/5/6 886/5/6
f 885/4/6 882/4/6 886/4/6
f 883/4/6 884/4/6 887/4/6
f 886/5/6 883/5/6 887/5/6
f 884/11/6 880/11/6 888/11/6
f 887/4/6 884/4/6 888/4/6
f 885/11/6 886/11/6 889/11/6
f 875/11/6 885/11/6 889/11/6
f 889/11/6 886/11/6 890/11/6
f 886/4/6 887/4/6 891/4/6
f 890/11/6 886/11/6 891/11/6
f 887/11/6 888/11/6 892/11/6
f 891/4/6 887/4/6 892/4/6
f 888/11/6 880/11/6 893/11/6
f 892/11/6 888/11/6 893/11/6
f 893/11/6 880/11/6 894/11/6
f 891/11/6 892/11/6 895/11/6
f 892/11/6 893/11/6 895/11/6
f 890/11/6 891/11/6 895/11/6
f 895/11/6 893/11/6 896/11/6
